<?xml version="1.0" encoding="UTF-8"?>
<svg width="700pt" height="700pt" version="1.1" viewBox="0 0 700 700" xmlns="http://www.w3.org/2000/svg" xmlns:xlink="http://www.w3.org/1999/xlink">
 <defs>
  <symbol id="d" overflow="visible">
   <path fill='#E88B73ff' d="m39.078-2.3281c-2.0117 1.043-4.1094 1.8281-6.2969 2.3594s-4.4648 0.79688-6.8281 0.79688c-7.0859 0-12.699-1.9766-16.844-5.9375-4.1367-3.957-6.2031-9.3281-6.2031-16.109 0-6.7891 2.0664-12.164 6.2031-16.125 4.1445-3.9688 9.7578-5.9531 16.844-5.9531 2.3633 0 4.6406 0.26562 6.8281 0.79688s4.2852 1.3242 6.2969 2.375v8.7969c-2.0312-1.3828-4.0391-2.3984-6.0156-3.0469-1.9688-0.64453-4.0469-0.96875-6.2344-0.96875-3.9062 0-6.9844 1.2578-9.2344 3.7656-2.2422 2.5-3.3594 5.9531-3.3594 10.359 0 4.3867 1.1172 7.8359 3.3594 10.344 2.25 2.5 5.3281 3.75 9.2344 3.75 2.1875 0 4.2656-0.32031 6.2344-0.96875 1.9766-0.64453 3.9844-1.6602 6.0156-3.0469z"/>
  </symbol>
  <symbol id="a" overflow="visible">
   <path fill='#E88B73ff' d="m16.031-40.953v9.0625h10.516v7.2812h-10.516v13.531c0 1.4805 0.28906 2.4805 0.875 3 0.59375 0.52344 1.7656 0.78125 3.5156 0.78125h5.2344v7.2969h-8.7344c-4.0312 0-6.8867-0.83594-8.5625-2.5156-1.6797-1.6875-2.5156-4.5391-2.5156-8.5625v-13.531h-5.0781v-7.2812h5.0781v-9.0625z"/>
  </symbol>
  <symbol id="c" overflow="visible">
   <path fill='#E88B73ff' d="m26.594-27.234v-17.078h10.266v44.312h-10.266v-4.6094c-1.3984 1.875-2.9453 3.25-4.6406 4.125-1.6875 0.875-3.6406 1.3125-5.8594 1.3125-3.9297 0-7.1562-1.5625-9.6875-4.6875-2.5234-3.125-3.7812-7.1445-3.7812-12.062 0-4.9141 1.2578-8.9375 3.7812-12.062 2.5312-3.125 5.7578-4.6875 9.6875-4.6875 2.1953 0 4.1445 0.44531 5.8438 1.3281 1.707 0.88672 3.2578 2.2578 4.6562 4.1094zm-6.7188 20.656c2.1875 0 3.8516-0.79688 5-2.3906 1.1445-1.5938 1.7188-3.9102 1.7188-6.9531 0-3.0391-0.57422-5.3594-1.7188-6.9531-1.1484-1.5938-2.8125-2.3906-5-2.3906-2.168 0-3.8242 0.79688-4.9688 2.3906-1.1484 1.5938-1.7188 3.9141-1.7188 6.9531 0 3.043 0.57031 5.3594 1.7188 6.9531 1.1445 1.5938 2.8008 2.3906 4.9688 2.3906z"/>
  </symbol>
  <symbol id="b" overflow="visible">
   <path fill='#E88B73ff' d="m21.875-6.5781c2.1758 0 3.8359-0.79688 4.9844-2.3906 1.1562-1.5938 1.7344-3.9102 1.7344-6.9531 0-3.0391-0.57812-5.3594-1.7344-6.9531-1.1484-1.5938-2.8086-2.3906-4.9844-2.3906-2.1875 0-3.8672 0.80469-5.0312 2.4062-1.168 1.6055-1.75 3.918-1.75 6.9375 0 3.0234 0.58203 5.3359 1.75 6.9375 1.1641 1.6055 2.8438 2.4062 5.0312 2.4062zm-6.7812-20.656c1.4062-1.8516 2.9609-3.2227 4.6719-4.1094 1.707-0.88281 3.6719-1.3281 5.8906-1.3281 3.9375 0 7.1641 1.5625 9.6875 4.6875 2.5195 3.125 3.7812 7.1484 3.7812 12.062 0 4.918-1.2617 8.9375-3.7812 12.062-2.5234 3.125-5.75 4.6875-9.6875 4.6875-2.2188 0-4.1836-0.44531-5.8906-1.3281-1.7109-0.88281-3.2656-2.2539-4.6719-4.1094v4.6094h-10.188v-44.312h10.188z"/>
  </symbol>
 </defs>
 <g>
  <path fill='#E88B73ff' d="m385 408.33h116.67v23.332h-116.67z"/>
  <path fill='#E88B73ff' d="m595 408.33h-70v35c0 3.0938-1.2305 6.0625-3.418 8.25s-5.1562 3.418-8.25 3.418h-140c-6.4414 0-11.664-5.2227-11.664-11.668v-35c-73.5 0-77.465-2.332-86.449 6.8828-20.887 20.418 5.5977 86.453 63.113 86.453h210c68.719 0 91.816-93.336 46.668-93.336z"/>
  <path fill='#E88B73ff' d="m339.15 385c-24.219-26.984-37.027-62.312-35.727-98.547 1.3047-36.238 16.613-70.555 42.711-95.73 26.094-25.172 60.941-39.242 97.199-39.242 36.262 0 71.105 14.07 97.203 39.242 26.094 25.176 41.406 59.492 42.707 95.73 1.3047 36.234-11.504 71.562-35.727 98.547h29.75c22.789-32.824 32.758-72.867 28.012-112.54-4.7422-39.68-23.871-76.238-53.758-102.77s-68.461-41.176-108.42-41.176c-39.961 0-78.535 14.648-108.42 41.176-29.887 26.527-49.012 63.086-53.758 102.77-4.7461 39.676 5.2227 79.719 28.012 112.54z"/>
  <path fill='#E88B73ff' d="m443.33 175c-32.855 0-64.191 13.855-86.305 38.164-22.109 24.309-32.941 56.812-29.84 89.523 3.1055 32.711 19.859 62.598 46.145 82.312h140c26.289-19.715 43.043-49.602 46.145-82.312 3.1055-32.711-7.7305-65.215-29.84-89.523-22.109-24.309-53.445-38.164-86.305-38.164zm-31.617 96.715 35-35c4.5781-4.5742 11.992-4.5742 16.57 0 4.5742 4.5781 4.5742 11.992 0 16.57l-35 35c-4.5781 4.5742-11.992 4.5742-16.57 0-4.5742-4.5781-4.5742-11.992 0-16.57zm63.234 39.898c-36.281 36.285-36.516 38.387-43.281 38.387-4.7422 0.027344-9.0273-2.8164-10.844-7.1914-1.8164-4.3789-0.80469-9.4219 2.5586-12.758l35-35c4.5742-4.5742 11.992-4.5742 16.566 0s4.5742 11.992 0 16.566z"/>
  <path fill='#E88B73ff' d="m81.668 315h140v186.67h-140z"/>
  <path fill='#E88B73ff' d="m93.332 268.33h116.67v23.332h-116.67z"/>
  <path fill='#E88B73ff' d="m198.33 93.332-93.332-35v186.67h93.332z"/>
 </g>
</svg>
