<?xml version="1.0" encoding="UTF-8"?>
<svg width="700pt" height="700pt" version="1.1" viewBox="0 0 700 700" xmlns="http://www.w3.org/2000/svg" xmlns:xlink="http://www.w3.org/1999/xlink">
 <defs>
  <symbol id="l" overflow="visible">
   <path fill='#E88B73ff' d="m29.312-1.75c-1.5117 0.78125-3.0898 1.3711-4.7344 1.7656-1.6367 0.40625-3.3398 0.60938-5.1094 0.60938-5.3125 0-9.5273-1.4844-12.641-4.4531-3.1055-2.9688-4.6562-7-4.6562-12.094s1.5508-9.125 4.6562-12.094c3.1133-2.9688 7.3281-4.4531 12.641-4.4531 1.7695 0 3.4727 0.19922 5.1094 0.59375 1.6445 0.39844 3.2227 0.99219 4.7344 1.7812v6.5938c-1.5312-1.0391-3.0391-1.8008-4.5156-2.2812-1.4805-0.48828-3.0391-0.73438-4.6719-0.73438-2.9375 0-5.2461 0.94531-6.9219 2.8281-1.6797 1.875-2.5156 4.4648-2.5156 7.7656 0 3.293 0.83594 5.8828 2.5156 7.7656 1.6758 1.875 3.9844 2.8125 6.9219 2.8125 1.6328 0 3.1914-0.23828 4.6719-0.71875 1.4766-0.48828 2.9844-1.2539 4.5156-2.2969z"/>
  </symbol>
  <symbol id="d" overflow="visible">
   <path fill='#E88B73ff' d="m21.453-17.406c-0.67969-0.3125-1.3516-0.53906-2.0156-0.6875-0.65625-0.15625-1.3203-0.23438-1.9844-0.23438-1.9688 0-3.4844 0.63281-4.5469 1.8906-1.0547 1.2617-1.5781 3.0703-1.5781 5.4219v11.016h-7.6562v-23.922h7.6562v3.9219c0.97656-1.5625 2.1016-2.7031 3.375-3.4219 1.2812-0.71875 2.8125-1.0781 4.5938-1.0781 0.25 0 0.52344 0.011719 0.82812 0.03125 0.30078 0.023438 0.73438 0.070312 1.2969 0.14062z"/>
  </symbol>
  <symbol id="b" overflow="visible">
   <path fill='#E88B73ff' d="m27.562-12.031v2.1875h-17.891c0.1875 1.793 0.83203 3.1367 1.9375 4.0312 1.1133 0.89844 2.6719 1.3438 4.6719 1.3438 1.6016 0 3.25-0.23438 4.9375-0.70312 1.6875-0.47656 3.4219-1.2031 5.2031-2.1719v5.8906c-1.8047 0.6875-3.6094 1.2031-5.4219 1.5469-1.8125 0.35156-3.6211 0.53125-5.4219 0.53125-4.3359 0-7.7031-1.0977-10.109-3.2969-2.3984-2.207-3.5938-5.2969-3.5938-9.2656 0-3.9062 1.1758-6.9727 3.5312-9.2031 2.3633-2.2383 5.6094-3.3594 9.7344-3.3594 3.7578 0 6.7695 1.1367 9.0312 3.4062 2.2578 2.2617 3.3906 5.2812 3.3906 9.0625zm-7.8594-2.5312c0-1.457-0.42969-2.6289-1.2812-3.5156-0.84375-0.89453-1.9492-1.3438-3.3125-1.3438-1.4922 0-2.6992 0.41797-3.625 1.25-0.91797 0.83594-1.4922 2.0391-1.7188 3.6094z"/>
  </symbol>
  <symbol id="c" overflow="visible">
   <path fill='#E88B73ff' d="m14.391-10.766c-1.5938 0-2.793 0.27344-3.5938 0.8125-0.80469 0.54297-1.2031 1.3398-1.2031 2.3906 0 0.96875 0.32031 1.7305 0.96875 2.2812 0.64453 0.54297 1.5469 0.8125 2.7031 0.8125 1.4375 0 2.6445-0.51562 3.625-1.5469 0.98828-1.0312 1.4844-2.3203 1.4844-3.875v-0.875zm11.688-2.8906v13.656h-7.7031v-3.5469c-1.0312 1.4492-2.1875 2.5078-3.4688 3.1719s-2.8398 1-4.6719 1c-2.4805 0-4.4961-0.72266-6.0469-2.1719-1.543-1.4453-2.3125-3.3203-2.3125-5.625 0-2.8125 0.96094-4.8672 2.8906-6.1719 1.9375-1.3125 4.9688-1.9688 9.0938-1.9688h4.5156v-0.60938c0-1.207-0.48047-2.0938-1.4375-2.6562-0.94922-0.5625-2.4375-0.84375-4.4688-0.84375-1.6367 0-3.1562 0.16797-4.5625 0.5-1.4062 0.32422-2.7188 0.8125-3.9375 1.4688v-5.8281c1.6445-0.40625 3.2891-0.70703 4.9375-0.90625 1.6562-0.20703 3.3047-0.3125 4.9531-0.3125 4.3203 0 7.4375 0.85547 9.3438 2.5625 1.9141 1.6992 2.875 4.4609 2.875 8.2812z"/>
  </symbol>
  <symbol id="i" overflow="visible">
   <path fill='#E88B73ff' d="m12.031-30.719v6.7969h7.875v5.4688h-7.875v10.141c0 1.1172 0.21875 1.8711 0.65625 2.2656 0.4375 0.38672 1.3125 0.57812 2.625 0.57812h3.9375v5.4688h-6.5625c-3.0234 0-5.1641-0.62891-6.4219-1.8906-1.2617-1.2578-1.8906-3.3984-1.8906-6.4219v-10.141h-3.7969v-5.4688h3.7969v-6.7969z"/>
  </symbol>
  <symbol id="a" overflow="visible">
   <path fill='#E88B73ff' d="m19.953-20.422v-12.812h7.6875v33.234h-7.6875v-3.4531c-1.0547 1.4062-2.2148 2.4375-3.4844 3.0938-1.2734 0.65625-2.7422 0.98438-4.4062 0.98438-2.9492 0-5.3711-1.1719-7.2656-3.5156-1.8867-2.3438-2.8281-5.3594-2.8281-9.0469s0.94141-6.7031 2.8281-9.0469c1.8945-2.3438 4.3164-3.5156 7.2656-3.5156 1.6562 0 3.1172 0.33594 4.3906 1 1.2812 0.65625 2.4453 1.6836 3.5 3.0781zm-5.0469 15.484c1.6445 0 2.8945-0.59766 3.75-1.7969 0.86328-1.1953 1.2969-2.9297 1.2969-5.2031 0-2.2812-0.43359-4.0195-1.2969-5.2188-0.85547-1.1953-2.1055-1.7969-3.75-1.7969-1.625 0-2.8711 0.60156-3.7344 1.7969-0.85547 1.1992-1.2812 2.9375-1.2812 5.2188 0 2.2734 0.42578 4.0078 1.2812 5.2031 0.86328 1.1992 2.1094 1.7969 3.7344 1.7969z"/>
  </symbol>
  <symbol id="h" overflow="visible">
   <path fill='#E88B73ff' d="m16.406-4.9375c1.6328 0 2.8828-0.59766 3.75-1.7969 0.86328-1.1953 1.2969-2.9297 1.2969-5.2031 0-2.2812-0.43359-4.0195-1.2969-5.2188-0.86719-1.1953-2.1172-1.7969-3.75-1.7969-1.6367 0-2.8906 0.60547-3.7656 1.8125-0.875 1.1992-1.3125 2.9336-1.3125 5.2031 0 2.2617 0.4375 3.9961 1.3125 5.2031 0.875 1.1992 2.1289 1.7969 3.7656 1.7969zm-5.0781-15.484c1.0508-1.3945 2.2188-2.4219 3.5-3.0781 1.2812-0.66406 2.7539-1 4.4219-1 2.9453 0 5.3672 1.1719 7.2656 3.5156 1.8945 2.3438 2.8438 5.3594 2.8438 9.0469s-0.94922 6.7031-2.8438 9.0469c-1.8984 2.3438-4.3203 3.5156-7.2656 3.5156-1.668 0-3.1406-0.33594-4.4219-1s-2.4492-1.6914-3.5-3.0781v3.4531h-7.6562v-33.234h7.6562z"/>
  </symbol>
  <symbol id="g" overflow="visible">
   <path fill='#E88B73ff' d="m0.53125-23.922h7.6562l6.4219 16.234 5.4688-16.234h7.6562l-10.062 26.188c-1.0117 2.6641-2.1953 4.5234-3.5469 5.5781-1.3438 1.0625-3.1211 1.5938-5.3281 1.5938h-4.4219v-5.0156h2.3906c1.3008 0 2.2422-0.21094 2.8281-0.625 0.59375-0.40625 1.0547-1.1484 1.3906-2.2188l0.20312-0.65625z"/>
  </symbol>
  <symbol id="f" overflow="visible">
   <path fill='#E88B73ff' d="m23.375-5.8125h-12.859l-2.0312 5.8125h-8.2656l11.812-31.891h9.7969l11.812 31.891h-8.2656zm-10.812-5.9219h8.7344l-4.3594-12.688z"/>
  </symbol>
  <symbol id="e" overflow="visible">
   <path fill='#E88B73ff' d="m27.734-14.562v14.562h-7.7031v-11.156c0-2.0625-0.046875-3.4844-0.14062-4.2656-0.085937-0.78125-0.24219-1.3594-0.46875-1.7344-0.30469-0.5-0.71094-0.88281-1.2188-1.1562-0.51172-0.28125-1.0938-0.42188-1.75-0.42188-1.5938 0-2.8516 0.61719-3.7656 1.8438-0.90625 1.2305-1.3594 2.9375-1.3594 5.125v11.766h-7.6562v-23.922h7.6562v3.5c1.1445-1.3945 2.3633-2.4219 3.6562-3.0781 1.3008-0.66406 2.7383-1 4.3125-1 2.7578 0 4.8516 0.85156 6.2812 2.5469 1.4375 1.6875 2.1562 4.1523 2.1562 7.3906z"/>
  </symbol>
  <symbol id="k" overflow="visible">
   <path fill='#E88B73ff' d="m16.797-19.547c1.2891 0 2.2695-0.28125 2.9375-0.84375 0.67578-0.57031 1.0156-1.4141 1.0156-2.5312 0-1.0938-0.33984-1.9258-1.0156-2.5-0.66797-0.58203-1.6484-0.875-2.9375-0.875h-4.5625v6.75zm0.26562 13.953c1.6562 0 2.8984-0.34766 3.7344-1.0469 0.83203-0.69531 1.25-1.7539 1.25-3.1719 0-1.375-0.41797-2.4062-1.25-3.0938-0.82422-0.69531-2.0703-1.0469-3.7344-1.0469h-4.8281v8.3594zm7.6562-11.469c1.7578 0.51172 3.125 1.4609 4.0938 2.8438 0.96875 1.375 1.4531 3.0703 1.4531 5.0781 0 3.0742-1.043 5.3672-3.125 6.875-2.0742 1.5117-5.2305 2.2656-9.4688 2.2656h-13.656v-31.891h12.344c4.4258 0 7.6328 0.67188 9.625 2.0156 1.9883 1.3359 2.9844 3.4766 2.9844 6.4219 0 1.5547-0.36719 2.875-1.0938 3.9688-0.73047 1.0859-1.7812 1.8906-3.1562 2.4219z"/>
  </symbol>
  <symbol id="j" overflow="visible">
   <path fill='#E88B73ff' d="m3.4219-9.3125v-14.609h7.6875v2.3906c0 1.293-0.011719 2.918-0.03125 4.875-0.011719 1.9609-0.015625 3.2656-0.015625 3.9219 0 1.9297 0.046875 3.3125 0.14062 4.1562 0.10156 0.84375 0.28125 1.4609 0.53125 1.8438 0.3125 0.5 0.71875 0.88672 1.2188 1.1562 0.50781 0.27344 1.0938 0.40625 1.75 0.40625 1.5938 0 2.8438-0.60938 3.75-1.8281 0.91406-1.2266 1.375-2.9297 1.375-5.1094v-11.812h7.6406v23.922h-7.6406v-3.4531c-1.1562 1.3867-2.3828 2.4141-3.6719 3.0781-1.2812 0.66406-2.6992 1-4.25 1-2.7734 0-4.8828-0.84766-6.3281-2.5469-1.4375-1.6953-2.1562-4.1602-2.1562-7.3906z"/>
  </symbol>
 </defs>
 <g>
  <path fill='#E88B73ff' d="m258.38 280.85v14.703c0 25.113-20.43 45.543-45.543 45.543-25.113 0-45.551-20.43-45.551-45.543v-14.742c-9.2852 8.2891-14.895 20.16-14.895 33.109v180.46h120.92l0.003906-180.46c0-12.922-5.625-24.777-14.934-33.074z"/>
  <path fill='#E88B73ff' d="m352.49 295.73c14.762 0 26.773-12.008 26.773-26.773v-46.902c0-4.4922-3.6523-8.1406-8.1406-8.1406h-37.27c-4.4883 0-8.1406 3.6484-8.1406 8.1406v46.902c0.007812 14.766 12.02 26.773 26.777 26.773z"/>
  <path fill='#E88B73ff' d="m473.52 240.52c-4.4883 0-8.1406 3.6562-8.1406 8.1484v15.262c0 0.10938 0.003906 0.21484 0 0.32422v31.305c0 14.766 12.012 26.773 26.773 26.773 14.766 0 26.777-12.008 26.777-26.773v-46.891c0-4.4922-3.6523-8.1484-8.1445-8.1484z"/>
  <path fill='#E88B73ff' d="m239.61 295.55v-31.305c-0.003906-0.10938 0-0.21484 0-0.32422v-15.262c0-4.4922-3.6523-8.1484-8.1406-8.1484h-37.27c-4.4922 0-8.1445 3.6562-8.1445 8.1484v46.891c0 14.766 12.012 26.773 26.777 26.773 14.766 0 26.777-12.004 26.777-26.773z"/>
  <path fill='#E88B73ff' d="m398.04 254.21v14.75c0 25.113-20.43 45.547-45.547 45.547-25.113 0-45.543-20.43-45.543-45.547v-14.75c-9.2656 8.2539-14.863 20.137-14.863 33.145v207.04h120.81l0.003906-180.46v-26.57c0-13.012-5.5977-24.895-14.863-33.148z"/>
  <path fill='#E88B73ff' d="m537.7 280.82v14.742c0 25.113-20.434 45.543-45.551 45.543-25.113 0-45.543-20.43-45.543-45.543v-14.703c-9.3086 8.2969-14.93 20.152-14.93 33.074v180.46h120.92v-180.47c0-12.949-5.6094-24.824-14.895-33.109z"/>
  <path fill='#E88B73ff' d="m342.89 167.09h194.28c6.0898 0 11.027-4.9375 11.027-11.023l-0.003907-79.426c0-6.0898-4.9375-11.027-11.027-11.027h-194.28c-6.0898 0-11.023 4.9375-11.023 11.027v79.422c-0.003907 6.0898 4.9336 11.027 11.023 11.027z"/>
  <path fill='#E88B73ff' d="m313.07 81.398h-21.68c-6.1016 0-10.98 4.8789-10.98 10.98v14.586c-0.011718 0-0.019531-0.003906-0.03125-0.003906h-68.297c-0.14453 0-0.26563 0.074218-0.40625 0.082031-1.8672-9.2422-10.027-16.203-19.82-16.203h-24.223c-11.172 0-20.227 9.0547-20.227 20.227v10.562c0 11.172 9.0547 20.227 20.227 20.227h24.223c9.793 0 17.957-6.9609 19.82-16.207 0.14062 0.007812 0.26172 0.082031 0.40625 0.082031h68.297c0.011719 0 0.019532-0.007813 0.03125-0.007813v14.613c0 6.1016 4.8789 10.98 10.98 10.98h21.68z"/>
 </g>
</svg>
