<?xml version="1.0" encoding="UTF-8"?>
<svg width="700pt" height="700pt" version="1.1" viewBox="0 0 700 700" xmlns="http://www.w3.org/2000/svg" xmlns:xlink="http://www.w3.org/1999/xlink">
 <defs>
  <symbol id="b" overflow="visible">
   <path fill='#E88B73ff' d="m29.312-1.75c-1.5117 0.78125-3.0898 1.3711-4.7344 1.7656-1.6367 0.40625-3.3398 0.60938-5.1094 0.60938-5.3125 0-9.5273-1.4844-12.641-4.4531-3.1055-2.9688-4.6562-7-4.6562-12.094s1.5508-9.125 4.6562-12.094c3.1133-2.9688 7.3281-4.4531 12.641-4.4531 1.7695 0 3.4727 0.19922 5.1094 0.59375 1.6445 0.39844 3.2227 0.99219 4.7344 1.7812v6.5938c-1.5312-1.0391-3.0391-1.8008-4.5156-2.2812-1.4805-0.48828-3.0391-0.73438-4.6719-0.73438-2.9375 0-5.2461 0.94531-6.9219 2.8281-1.6797 1.875-2.5156 4.4648-2.5156 7.7656 0 3.293 0.83594 5.8828 2.5156 7.7656 1.6758 1.875 3.9844 2.8125 6.9219 2.8125 1.6328 0 3.1914-0.23828 4.6719-0.71875 1.4766-0.48828 2.9844-1.2539 4.5156-2.2969z"/>
  </symbol>
  <symbol id="i" overflow="visible">
   <path fill='#E88B73ff' d="m21.453-17.406c-0.67969-0.3125-1.3516-0.53906-2.0156-0.6875-0.65625-0.15625-1.3203-0.23438-1.9844-0.23438-1.9688 0-3.4844 0.63281-4.5469 1.8906-1.0547 1.2617-1.5781 3.0703-1.5781 5.4219v11.016h-7.6562v-23.922h7.6562v3.9219c0.97656-1.5625 2.1016-2.7031 3.375-3.4219 1.2812-0.71875 2.8125-1.0781 4.5938-1.0781 0.25 0 0.52344 0.011719 0.82812 0.03125 0.30078 0.023438 0.73438 0.070312 1.2969 0.14062z"/>
  </symbol>
  <symbol id="a" overflow="visible">
   <path fill='#E88B73ff' d="m27.562-12.031v2.1875h-17.891c0.1875 1.793 0.83203 3.1367 1.9375 4.0312 1.1133 0.89844 2.6719 1.3438 4.6719 1.3438 1.6016 0 3.25-0.23438 4.9375-0.70312 1.6875-0.47656 3.4219-1.2031 5.2031-2.1719v5.8906c-1.8047 0.6875-3.6094 1.2031-5.4219 1.5469-1.8125 0.35156-3.6211 0.53125-5.4219 0.53125-4.3359 0-7.7031-1.0977-10.109-3.2969-2.3984-2.207-3.5938-5.2969-3.5938-9.2656 0-3.9062 1.1758-6.9727 3.5312-9.2031 2.3633-2.2383 5.6094-3.3594 9.7344-3.3594 3.7578 0 6.7695 1.1367 9.0312 3.4062 2.2578 2.2617 3.3906 5.2812 3.3906 9.0625zm-7.8594-2.5312c0-1.457-0.42969-2.6289-1.2812-3.5156-0.84375-0.89453-1.9492-1.3438-3.3125-1.3438-1.4922 0-2.6992 0.41797-3.625 1.25-0.91797 0.83594-1.4922 2.0391-1.7188 3.6094z"/>
  </symbol>
  <symbol id="h" overflow="visible">
   <path fill='#E88B73ff' d="m14.391-10.766c-1.5938 0-2.793 0.27344-3.5938 0.8125-0.80469 0.54297-1.2031 1.3398-1.2031 2.3906 0 0.96875 0.32031 1.7305 0.96875 2.2812 0.64453 0.54297 1.5469 0.8125 2.7031 0.8125 1.4375 0 2.6445-0.51562 3.625-1.5469 0.98828-1.0312 1.4844-2.3203 1.4844-3.875v-0.875zm11.688-2.8906v13.656h-7.7031v-3.5469c-1.0312 1.4492-2.1875 2.5078-3.4688 3.1719s-2.8398 1-4.6719 1c-2.4805 0-4.4961-0.72266-6.0469-2.1719-1.543-1.4453-2.3125-3.3203-2.3125-5.625 0-2.8125 0.96094-4.8672 2.8906-6.1719 1.9375-1.3125 4.9688-1.9688 9.0938-1.9688h4.5156v-0.60938c0-1.207-0.48047-2.0938-1.4375-2.6562-0.94922-0.5625-2.4375-0.84375-4.4688-0.84375-1.6367 0-3.1562 0.16797-4.5625 0.5-1.4062 0.32422-2.7188 0.8125-3.9375 1.4688v-5.8281c1.6445-0.40625 3.2891-0.70703 4.9375-0.90625 1.6562-0.20703 3.3047-0.3125 4.9531-0.3125 4.3203 0 7.4375 0.85547 9.3438 2.5625 1.9141 1.6992 2.875 4.4609 2.875 8.2812z"/>
  </symbol>
  <symbol id="g" overflow="visible">
   <path fill='#E88B73ff' d="m12.031-30.719v6.7969h7.875v5.4688h-7.875v10.141c0 1.1172 0.21875 1.8711 0.65625 2.2656 0.4375 0.38672 1.3125 0.57812 2.625 0.57812h3.9375v5.4688h-6.5625c-3.0234 0-5.1641-0.62891-6.4219-1.8906-1.2617-1.2578-1.8906-3.3984-1.8906-6.4219v-10.141h-3.7969v-5.4688h3.7969v-6.7969z"/>
  </symbol>
  <symbol id="f" overflow="visible">
   <path fill='#E88B73ff' d="m19.953-20.422v-12.812h7.6875v33.234h-7.6875v-3.4531c-1.0547 1.4062-2.2148 2.4375-3.4844 3.0938-1.2734 0.65625-2.7422 0.98438-4.4062 0.98438-2.9492 0-5.3711-1.1719-7.2656-3.5156-1.8867-2.3438-2.8281-5.3594-2.8281-9.0469s0.94141-6.7031 2.8281-9.0469c1.8945-2.3438 4.3164-3.5156 7.2656-3.5156 1.6562 0 3.1172 0.33594 4.3906 1 1.2812 0.65625 2.4453 1.6836 3.5 3.0781zm-5.0469 15.484c1.6445 0 2.8945-0.59766 3.75-1.7969 0.86328-1.1953 1.2969-2.9297 1.2969-5.2031 0-2.2812-0.43359-4.0195-1.2969-5.2188-0.85547-1.1953-2.1055-1.7969-3.75-1.7969-1.625 0-2.8711 0.60156-3.7344 1.7969-0.85547 1.1992-1.2812 2.9375-1.2812 5.2188 0 2.2734 0.42578 4.0078 1.2812 5.2031 0.86328 1.1992 2.1094 1.7969 3.7344 1.7969z"/>
  </symbol>
  <symbol id="e" overflow="visible">
   <path fill='#E88B73ff' d="m16.406-4.9375c1.6328 0 2.8828-0.59766 3.75-1.7969 0.86328-1.1953 1.2969-2.9297 1.2969-5.2031 0-2.2812-0.43359-4.0195-1.2969-5.2188-0.86719-1.1953-2.1172-1.7969-3.75-1.7969-1.6367 0-2.8906 0.60547-3.7656 1.8125-0.875 1.1992-1.3125 2.9336-1.3125 5.2031 0 2.2617 0.4375 3.9961 1.3125 5.2031 0.875 1.1992 2.1289 1.7969 3.7656 1.7969zm-5.0781-15.484c1.0508-1.3945 2.2188-2.4219 3.5-3.0781 1.2812-0.66406 2.7539-1 4.4219-1 2.9453 0 5.3672 1.1719 7.2656 3.5156 1.8945 2.3438 2.8438 5.3594 2.8438 9.0469s-0.94922 6.7031-2.8438 9.0469c-1.8984 2.3438-4.3203 3.5156-7.2656 3.5156-1.668 0-3.1406-0.33594-4.4219-1s-2.4492-1.6914-3.5-3.0781v3.4531h-7.6562v-33.234h7.6562z"/>
  </symbol>
  <symbol id="d" overflow="visible">
   <path fill='#E88B73ff' d="m0.53125-23.922h7.6562l6.4219 16.234 5.4688-16.234h7.6562l-10.062 26.188c-1.0117 2.6641-2.1953 4.5234-3.5469 5.5781-1.3438 1.0625-3.1211 1.5938-5.3281 1.5938h-4.4219v-5.0156h2.3906c1.3008 0 2.2422-0.21094 2.8281-0.625 0.59375-0.40625 1.0547-1.1484 1.3906-2.2188l0.20312-0.65625z"/>
  </symbol>
  <symbol id="c" overflow="visible">
   <path fill='#E88B73ff' d="m4.0156-31.891h8.2188v25.672h14.453v6.2188h-22.672z"/>
  </symbol>
  <symbol id="o" overflow="visible">
   <path fill='#E88B73ff' d="m4.0156-31.891h8.2188v31.891h-8.2188z"/>
  </symbol>
  <symbol id="n" overflow="visible">
   <path fill='#E88B73ff' d="m4.0156-31.891h9.1875l11.594 21.875v-21.875h7.7969v31.891h-9.1875l-11.594-21.875v21.875h-7.7969z"/>
  </symbol>
  <symbol id="m" overflow="visible">
   <path fill='#E88B73ff' d="m4.0156-31.891h22.203v6.2188h-13.984v5.9375h13.141v6.2188h-13.141v7.2969h14.453v6.2188h-22.672z"/>
  </symbol>
  <symbol id="l" overflow="visible">
   <path fill='#E88B73ff' d="m0.21875-31.891h29.391v6.2188h-10.578v25.672h-8.2188v-25.672h-10.594z"/>
  </symbol>
  <symbol id="k" overflow="visible">
   <path fill='#E88B73ff' d="m18.578-26.516c-2.5 0-4.4453 0.92969-5.8281 2.7812-1.375 1.8555-2.0625 4.4609-2.0625 7.8125 0 3.3555 0.6875 5.9609 2.0625 7.8125 1.3828 1.8438 3.3281 2.7656 5.8281 2.7656 2.5195 0 4.4727-0.92188 5.8594-2.7656 1.3828-1.8516 2.0781-4.457 2.0781-7.8125 0-3.3516-0.69531-5.957-2.0781-7.8125-1.3867-1.8516-3.3398-2.7812-5.8594-2.7812zm0-5.9531c5.1328 0 9.1484 1.4688 12.047 4.4062 2.9062 2.9297 4.3594 6.9766 4.3594 12.141 0 5.1562-1.4531 9.2031-4.3594 12.141-2.8984 2.9375-6.9141 4.4062-12.047 4.4062-5.1055 0-9.1172-1.4688-12.031-4.4062-2.918-2.9375-4.375-6.9844-4.375-12.141 0-5.1641 1.457-9.2109 4.375-12.141 2.9141-2.9375 6.9258-4.4062 12.031-4.4062z"/>
  </symbol>
  <symbol id="j" overflow="visible">
   <path fill='#E88B73ff' d="m15.703-17.75c1.7188 0 2.9531-0.31641 3.7031-0.95312 0.75-0.64453 1.125-1.7031 1.125-3.1719 0-1.4453-0.375-2.4844-1.125-3.1094-0.75-0.63281-1.9844-0.95312-3.7031-0.95312h-3.4688v8.1875zm-3.4688 5.6875v12.062h-8.2188v-31.891h12.562c4.1953 0 7.2734 0.70312 9.2344 2.1094 1.957 1.4062 2.9375 3.6367 2.9375 6.6875 0 2.1055-0.51172 3.8359-1.5312 5.1875-1.0117 1.3555-2.543 2.3555-4.5938 3 1.125 0.25 2.1289 0.82812 3.0156 1.7344 0.89453 0.90625 1.7969 2.2773 2.7031 4.1094l4.4688 9.0625h-8.7656l-3.875-7.9219c-0.79297-1.5938-1.5898-2.6797-2.3906-3.2656-0.80469-0.58203-1.875-0.875-3.2188-0.875z"/>
  </symbol>
 </defs>
 <g>
  <path fill='#E88B73ff' d="m157.5 490h35v17.5h-35z"/>
  <path fill='#E88B73ff' d="m612.5 262.5h-5.5469l-16.949-30.492c-1.5312-2.7852-4.4609-4.5078-7.6406-4.5078h-24.062c1.3398-0.83984 2.6953-1.6719 4-2.582 25.496-17.824 40.723-46.98 40.723-77.988 0-41.598-26.625-78.031-66.246-90.66-1.7227-0.54297-3.5859-0.54297-5.3125 0-26.566 8.4688-48.004 28.062-58.828 53.75-4.9258 11.707-7.4297 24.125-7.4297 36.918 0 33.418 17.219 63.48 44.527 80.57h-24.605c-3.1758 0-6.1094 1.7227-7.6484 4.5078l-16.934 30.484h-5.5469c-9.6523 0-17.5 7.8477-17.5 17.5v106.24c-2.8164-0.73438-5.7148-1.2422-8.75-1.2422h-25.473c0.57812-1.6094 1.0312-3.2891 1.2773-5.0312l15.355-107.48c0.35938-2.5117-0.39453-5.0586-2.0469-6.9727-1.668-1.918-4.0742-3.0195-6.6133-3.0195h-8.75v-78.75c0-14.473-11.777-26.25-26.25-26.25h-5.1367c-11.105 0-21.035 7.0273-24.734 17.484l-30.992 87.516h-44.137c-2.5391 0-4.9453 1.1016-6.6133 3.0195-1.6523 1.918-2.4062 4.4609-2.0469 6.9727l15.355 107.48c0.25391 1.75 0.69922 3.4219 1.2773 5.0312h-34.223v-26.25c0-7-1.1797-13.879-3.5-20.449-8.6367-24.402-31.84-40.801-57.75-40.801h-35c-33.766 0-61.25 27.484-61.25 61.25v35c0 17.133 7.0859 32.621 18.473 43.75h-0.97266c-19.301 0-35 15.699-35 35 0 10.438 4.5938 19.836 11.875 26.25-7.2812 6.4141-11.875 15.812-11.875 26.25 0 19.301 15.699 35 35 35h498.75c14.473 0 26.25-11.777 26.25-26.25v-253.75c0-9.6523-7.8477-17.5-17.5-17.5zm-78.383-188.66c30.859 11.059 51.406 40.074 51.406 73.09 0 18.078-6.4414 35.324-17.656 49.043-1.5469-43.707-32.008-79.852-73.859-89.223 9.1797-15.172 23.238-26.855 40.109-32.91zm-51.406 73.09c0-3.6758 0.33984-7.2891 0.83984-10.867 0.10547-0.77734 0.21875-1.5586 0.35156-2.3359 0.60547-3.5078 1.3984-6.9727 2.4766-10.359 0.035156-0.12109 0.097656-0.24609 0.13281-0.35938 36.926 6.4492 64.008 38.219 64.008 76.422 0 4.2266-0.38672 8.5469-1.1094 12.879-1.3203 0.83984-2.6523 1.6719-4.0078 2.4219-0.875 0.48828-1.7422 1.0234-2.6328 1.4805-2.8164 1.4258-5.6953 2.7227-8.6523 3.7891-30.859-11.051-51.406-40.074-51.406-73.07zm7.5781 98.07h86.922l9.7227 17.5h-18.184c-4.8398 0-8.75 3.9102-8.75 8.75v70c0 4.8281-3.9219 8.75-8.75 8.75s-8.75-3.9219-8.75-8.75v-70c0-4.8398-3.9102-8.75-8.75-8.75h-53.184zm-127.42-64.18c1.2344-3.4766 4.543-5.8203 8.2422-5.8203h5.1367c4.8281 0 8.75 3.9219 8.75 8.75v78.75h-51.055zm-67.602 196.67-8.9258-62.492h89.906v-17.5h-92.41l-2.5039-17.5h119.82l-13.93 97.492c-0.60156 4.2773-4.332 7.5078-8.6523 7.5078h-74.645c-4.332 0-8.0625-3.2305-8.6641-7.5078zm-190.27 16.258v-35c0-24.125 19.625-43.75 43.75-43.75h35c18.508 0 35.086 11.715 41.258 29.137 1.6523 4.6914 2.4922 9.6094 2.4922 14.613v26.25h-61.25c-4.8281 0-8.75-3.9219-8.75-8.75v-8.75c0-4.8281 3.9219-8.75 8.75-8.75h8.75v8.75h17.5v-8.75c0-9.6523-7.8477-17.5-17.5-17.5h-8.75c-14.473 0-26.25 11.777-26.25 26.25v8.75c0 14.473 11.777 26.25 26.25 26.25h262.5c9.6523 0 17.5 7.8477 17.5 17.5v17.5h-297.5c-24.125 0-43.75-19.625-43.75-43.75zm341.25 148.75h-341.25c-9.6523 0-17.5-7.8477-17.5-17.5s7.8477-17.5 17.5-17.5c4.8398 0 8.75-3.9102 8.75-8.75s-3.9102-8.75-8.75-8.75c-9.6523 0-17.5-7.8477-17.5-17.5s7.8477-17.5 17.5-17.5h350c9.6523 0 17.5 7.8477 17.5 17.5s-7.8477 17.5-17.5 17.5h-245v17.5h245c9.6523 0 17.5 7.8477 17.5 17.5s-7.8477 17.5-17.5 17.5zm166.25-8.75c0 4.8281-3.9219 8.75-8.75 8.75h-118.61c3.0078-5.1719 4.8633-11.094 4.8633-17.5 0-10.438-4.5938-19.836-11.875-26.25 7.2812-6.4141 11.875-15.812 11.875-26.25 0-16.266-11.191-29.848-26.25-33.758v-18.742c0-8.8008-3.3672-16.758-8.75-22.906v-117.09h70v61.25c0 14.473 11.777 26.25 26.25 26.25s26.25-11.777 26.25-26.25v-61.25h35z"/>
  <path fill='#E88B73ff' d="m560 402.5c0 4.8281-3.9219 8.75-8.75 8.75s-8.75-3.9219-8.75-8.75v-17.5h-17.5v17.5c0 14.473 11.777 26.25 26.25 26.25s26.25-11.777 26.25-26.25v-17.5h-17.5z"/>
  <path fill='#E88B73ff' d="m138.12 222.89 10.133 17.551 15.156-8.75-10.133-17.551c6.9648-21.281 4.75-44.273-6.5-63.77-11.988-20.766-32.508-34.773-56.281-38.43-4.0781-0.60547-7.9961 1.6445-9.4844 5.4766-8.7227 22.418-6.8516 47.188 5.1367 67.953 11.262 19.484 30.055 32.906 51.973 37.52zm-43.066-92.105c15.398 4.2695 28.48 14.332 36.566 28.324 5.625 9.7578 8.3203 20.641 8.1289 31.586l-11.332-19.637-15.156 8.75 11.332 19.625c-9.5625-5.3008-17.648-13.082-23.273-22.828-8.0938-13.996-10.266-30.34-6.2656-45.82z"/>
  <path fill='#E88B73ff' d="m244.31 81.023c12.145 7.0078 25.645 10.562 39.254 10.562 9.6602 0 19.383-1.793 28.691-5.418 3.8242-1.4883 6.0977-5.4258 5.4766-9.4766-3.6484-23.793-17.656-44.293-38.43-56.289-19.477-11.242-42.465-13.477-63.762-6.5117l-17.555-10.129-8.75 15.156 17.551 10.133c4.6133 21.926 18.027 40.723 37.523 51.973zm26.25-45.465c14.008 8.0859 24.062 21.156 28.332 36.566-15.488 3.9648-31.832 1.8281-45.832-6.2656-9.7461-5.625-17.527-13.711-22.828-23.273l19.625 11.332 8.75-15.156-19.617-11.332c10.93-0.19141 21.824 2.5039 31.57 8.1289z"/>
  <path fill='#E88B73ff' d="m266.88 152.26c-14.281-8.2266-31.281-9.2305-46.672-2.7227-3.6055 1.5234-5.7578 5.2578-5.2773 9.1367 2.0547 16.582 11.426 30.809 25.699 39.059 8.043 4.6289 16.941 6.9727 25.926 6.9727 6.9844 0 14.027-1.4102 20.746-4.2539 3.6055-1.5234 5.7578-5.2578 5.2773-9.1367-2.0664-16.566-11.43-30.801-25.699-39.055zm-17.5 30.32c-7.4102-4.2773-12.836-11.023-15.496-19.059 8.2617-1.6992 16.836-0.38672 24.246 3.8945 7.4102 4.2773 12.836 11.016 15.496 19.059-8.3125 1.6953-16.844 0.375-24.246-3.8945z"/>
  <path fill='#E88B73ff' d="m393.75 52.5h17.5v17.5h-17.5z"/>
  <path fill='#E88B73ff' d="m393.75 87.5h17.5v17.5h-17.5z"/>
  <path fill='#E88B73ff' d="m376.25 70h17.5v17.5h-17.5z"/>
  <path fill='#E88B73ff' d="m411.25 70h17.5v17.5h-17.5z"/>
 </g>
</svg>
